<svg id="svg" version="1.1" width="500" height="500" xmlns="http://www.w3.org/2000/svg" xmlns:xlink="http://www.w3.org/1999/xlink" style="display: block;"><g id="svgg"><path id="path0" d="M293.247 26.005 C 292.393 26.662,290.683 27.200,289.447 27.200 C 288.211 27.200,287.200 27.560,287.200 28.000 C 287.200 28.440,286.614 28.800,285.897 28.800 C 284.146 28.800,276.846 36.038,276.821 37.800 C 276.809 38.570,276.440 39.200,276.000 39.200 C 275.560 39.200,275.200 40.126,275.200 41.257 C 275.200 42.389,274.660 43.854,274.000 44.514 C 273.181 45.333,272.800 47.355,272.800 50.882 C 272.800 54.738,273.105 56.167,274.000 56.511 C 274.673 56.769,275.200 57.959,275.200 59.221 C 275.200 61.511,277.510 66.386,278.600 66.395 C 278.930 66.398,279.200 66.940,279.200 67.600 C 279.200 68.260,279.586 68.800,280.057 68.800 C 280.529 68.800,281.416 69.250,282.029 69.800 C 284.780 72.267,285.605 72.800,286.668 72.800 C 287.293 72.800,288.277 73.369,288.854 74.065 C 290.208 75.697,308.050 75.457,308.601 73.800 C 308.784 73.250,309.591 72.800,310.395 72.800 C 312.441 72.800,320.800 64.582,320.800 62.570 C 320.800 61.670,321.250 60.784,321.800 60.601 C 323.455 60.051,323.692 43.806,322.069 42.183 C 321.371 41.485,320.800 40.317,320.800 39.588 C 320.800 37.753,315.977 31.200,314.626 31.200 C 314.020 31.200,312.690 30.300,311.670 29.200 C 310.483 27.919,308.950 27.200,307.406 27.200 C 306.081 27.200,304.599 26.722,304.114 26.138 C 302.850 24.614,295.177 24.521,293.247 26.005 M289.400 101.351 C 288.630 101.553,288.000 102.051,288.000 102.459 C 288.000 102.866,287.434 103.200,286.743 103.200 C 286.051 103.200,284.984 103.650,284.371 104.200 C 281.723 106.574,280.818 107.200,280.034 107.200 C 279.575 107.200,279.200 107.740,279.200 108.400 C 279.200 109.060,278.930 109.602,278.600 109.605 C 277.510 109.614,275.200 114.489,275.200 116.779 C 275.200 118.041,274.673 119.231,274.000 119.489 C 273.105 119.833,272.800 121.262,272.800 125.118 C 272.800 128.645,273.181 130.667,274.000 131.486 C 274.660 132.146,275.200 133.611,275.200 134.743 C 275.200 135.874,275.560 136.800,276.000 136.800 C 276.440 136.800,276.809 137.430,276.821 138.200 C 276.846 139.962,284.146 147.200,285.897 147.200 C 286.614 147.200,287.200 147.560,287.200 148.000 C 287.200 148.440,288.601 148.800,290.314 148.800 C 292.345 148.800,293.589 149.218,293.889 150.000 C 294.200 150.811,295.461 151.196,297.775 151.189 C 302.045 151.175,304.919 150.440,304.344 149.509 C 304.103 149.119,305.134 148.800,306.636 148.800 C 308.440 148.800,310.099 148.121,311.524 146.800 C 312.711 145.700,314.143 144.800,314.706 144.800 C 315.934 144.800,320.800 138.227,320.800 136.567 C 320.800 135.923,321.370 134.923,322.067 134.345 C 323.696 132.992,323.456 115.950,321.800 115.399 C 321.250 115.216,320.800 114.330,320.800 113.430 C 320.800 111.428,312.446 103.200,310.414 103.200 C 309.620 103.200,308.764 102.660,308.511 102.000 C 308.060 100.826,293.324 100.326,289.400 101.351 M236.400 120.000 C 236.128 120.440,234.873 120.800,233.610 120.800 C 232.347 120.800,230.774 121.340,230.114 122.000 C 229.454 122.660,228.693 123.200,228.423 123.200 C 226.926 123.200,219.200 130.935,219.200 132.434 C 219.200 133.075,218.889 133.600,218.509 133.600 C 217.534 133.600,215.200 140.009,215.200 142.684 C 215.200 143.911,214.660 145.454,214.000 146.114 C 213.231 146.883,212.800 148.858,212.800 151.610 C 212.800 153.973,212.440 156.128,212.000 156.400 C 211.560 156.672,211.189 159.123,211.175 161.847 C 211.159 164.928,210.705 167.387,209.975 168.353 C 209.329 169.207,208.800 171.256,208.800 172.906 C 208.800 174.556,208.440 176.128,208.000 176.400 C 207.560 176.672,207.200 177.953,207.200 179.247 C 207.200 180.541,206.847 181.600,206.415 181.600 C 205.984 181.600,205.405 182.500,205.129 183.600 C 204.852 184.700,204.306 185.600,203.913 185.600 C 203.521 185.600,203.200 186.157,203.200 186.838 C 203.200 187.519,202.300 188.910,201.200 189.930 C 200.100 190.949,199.200 192.038,199.200 192.349 C 199.200 193.055,197.094 195.200,196.400 195.200 C 196.117 195.200,195.384 195.650,194.771 196.200 C 191.263 199.346,191.027 199.406,182.398 199.378 C 174.709 199.353,173.564 199.164,172.075 197.675 C 171.154 196.754,170.068 196.000,169.662 196.000 C 168.452 196.000,164.570 191.751,161.177 186.715 C 159.430 184.122,157.801 181.820,157.558 181.600 C 157.315 181.380,156.489 179.850,155.721 178.200 C 154.953 176.550,153.982 175.200,153.562 175.200 C 153.143 175.200,152.800 174.524,152.800 173.699 C 152.800 170.630,144.304 163.200,140.794 163.200 C 140.012 163.200,139.151 162.626,138.882 161.925 C 138.251 160.280,122.353 160.536,121.799 162.200 C 121.616 162.750,120.728 163.200,119.825 163.200 C 118.922 163.200,117.349 164.100,116.330 165.200 C 115.310 166.300,114.253 167.200,113.981 167.200 C 113.166 167.200,111.200 169.421,111.200 170.343 C 111.200 170.814,110.866 171.200,110.459 171.200 C 109.443 171.200,107.200 175.855,107.200 177.963 C 107.200 178.907,106.796 180.084,106.302 180.578 C 104.759 182.121,104.547 187.729,105.928 190.497 C 106.628 191.899,107.200 193.655,107.200 194.400 C 107.200 196.084,109.502 200.800,110.323 200.800 C 110.657 200.800,111.411 201.700,112.000 202.800 C 112.589 203.900,113.511 204.800,114.050 204.800 C 114.588 204.800,115.236 205.340,115.489 206.000 C 115.743 206.660,116.681 207.200,117.575 207.200 C 118.469 207.200,119.200 207.560,119.200 208.000 C 119.200 208.440,120.236 208.800,121.502 208.800 C 122.768 208.800,124.252 209.340,124.800 210.000 C 125.348 210.660,126.991 211.200,128.451 211.200 C 129.911 211.200,131.328 211.560,131.600 212.000 C 131.872 212.440,133.693 212.800,135.647 212.800 C 137.601 212.800,139.200 213.131,139.200 213.536 C 139.200 213.941,140.358 214.527,141.774 214.838 C 144.197 215.370,146.001 216.117,148.800 217.748 C 149.460 218.132,150.630 218.658,151.400 218.917 C 152.170 219.175,152.800 219.705,152.800 220.093 C 152.800 220.482,153.340 220.800,154.000 220.800 C 154.660 220.800,155.200 221.467,155.200 222.283 C 155.200 223.099,156.100 224.737,157.200 225.924 C 158.300 227.111,159.200 228.583,159.200 229.194 C 159.200 229.805,159.560 230.528,160.000 230.800 C 160.440 231.072,160.800 231.967,160.800 232.790 C 160.800 233.613,161.340 234.826,162.000 235.486 C 162.660 236.146,163.200 237.016,163.200 237.420 C 163.200 239.974,168.352 247.834,170.694 248.854 C 171.632 249.262,172.940 249.901,173.600 250.274 C 174.260 250.646,175.605 251.367,176.589 251.876 C 178.831 253.034,196.800 253.145,196.800 252.000 C 196.800 251.560,197.700 251.200,198.800 251.200 C 200.044 251.200,200.800 250.747,200.800 250.000 C 200.800 249.340,201.280 248.800,201.867 248.800 C 203.206 248.800,208.800 243.275,208.800 241.952 C 208.800 241.413,209.340 240.764,210.000 240.511 C 210.660 240.257,211.200 239.319,211.200 238.425 C 211.200 237.531,211.560 236.800,212.000 236.800 C 212.502 236.800,212.800 231.766,212.800 223.298 C 212.800 212.272,213.020 209.613,214.000 208.800 C 214.660 208.252,215.200 207.149,215.200 206.349 C 215.200 205.549,215.560 204.672,216.000 204.400 C 216.440 204.128,216.800 203.207,216.800 202.353 C 216.800 201.499,217.279 200.800,217.865 200.800 C 218.450 200.800,219.411 199.900,220.000 198.800 C 220.589 197.700,221.550 196.800,222.135 196.800 C 222.721 196.800,223.201 196.530,223.202 196.200 C 223.202 195.870,225.002 194.374,227.202 192.875 C 229.401 191.376,231.200 189.846,231.200 189.475 C 231.200 189.104,231.920 188.800,232.800 188.800 C 233.680 188.800,234.400 188.440,234.400 188.000 C 234.400 187.560,234.901 187.200,235.514 187.200 C 236.127 187.200,236.836 186.660,237.089 186.000 C 237.343 185.340,238.281 184.800,239.175 184.800 C 240.069 184.800,240.800 184.498,240.800 184.129 C 240.800 183.759,242.236 182.769,243.991 181.929 C 245.746 181.088,247.186 180.130,247.191 179.800 C 247.196 179.470,247.902 179.200,248.760 179.200 C 249.618 179.200,250.608 178.689,250.960 178.065 C 251.312 177.440,252.140 176.810,252.800 176.665 C 253.460 176.519,254.793 175.590,255.762 174.600 C 256.731 173.610,257.718 172.800,257.956 172.800 C 258.406 172.800,261.415 170.352,264.348 167.600 C 266.644 165.445,268.800 161.945,268.800 160.371 C 268.800 159.664,269.340 158.546,270.000 157.886 C 270.925 156.961,271.200 154.614,271.200 147.641 C 271.200 140.577,270.937 138.378,270.000 137.600 C 269.340 137.052,268.800 136.052,268.800 135.378 C 268.800 134.703,267.900 132.971,266.800 131.529 C 265.700 130.087,264.800 128.523,264.800 128.053 C 264.800 127.584,264.414 127.200,263.943 127.200 C 263.471 127.200,262.584 126.750,261.971 126.200 C 259.548 124.027,258.446 123.200,257.977 123.200 C 257.707 123.200,256.946 122.660,256.286 122.000 C 255.626 121.340,254.053 120.800,252.790 120.800 C 251.527 120.800,250.272 120.440,250.000 120.000 C 249.728 119.560,246.668 119.200,243.200 119.200 C 239.732 119.200,236.672 119.560,236.400 120.000 M73.600 144.000 C 73.600 144.440,72.750 144.800,71.712 144.800 C 70.632 144.800,69.181 145.656,68.322 146.800 C 67.496 147.900,66.366 148.800,65.810 148.800 C 65.255 148.800,64.800 149.340,64.800 150.000 C 64.800 150.660,64.440 151.200,64.000 151.200 C 63.560 151.200,63.200 152.061,63.200 153.114 C 63.200 154.167,62.660 155.236,62.000 155.489 C 61.123 155.826,60.803 157.194,60.811 160.575 C 60.824 165.936,61.480 168.969,62.491 168.344 C 62.881 168.103,63.200 168.756,63.200 169.796 C 63.200 171.784,67.709 176.800,69.495 176.800 C 70.056 176.800,71.054 177.340,71.714 178.000 C 72.563 178.849,74.635 179.200,78.800 179.200 C 82.965 179.200,85.037 178.849,85.886 178.000 C 86.546 177.340,87.587 176.800,88.199 176.800 C 89.987 176.800,94.229 172.561,94.827 170.176 C 95.130 168.971,95.697 167.787,96.089 167.545 C 98.252 166.208,95.998 151.200,93.635 151.200 C 93.278 151.200,92.791 150.453,92.553 149.541 C 92.314 148.628,91.397 147.693,90.515 147.462 C 89.632 147.231,88.717 146.538,88.480 145.921 C 88.244 145.305,87.319 144.800,86.425 144.800 C 85.531 144.800,84.800 144.440,84.800 144.000 C 84.800 143.543,82.400 143.200,79.200 143.200 C 76.000 143.200,73.600 143.543,73.600 144.000 M294.065 179.895 C 293.829 180.277,292.187 180.821,290.418 181.104 C 288.648 181.387,287.200 181.887,287.200 182.214 C 287.200 182.542,286.188 183.257,284.952 183.804 C 280.581 185.739,275.246 192.352,275.175 195.923 C 275.161 196.625,274.621 197.899,273.975 198.753 C 272.342 200.911,272.362 209.482,274.000 210.111 C 274.782 210.411,275.200 211.655,275.200 213.686 C 275.200 215.399,275.536 216.800,275.946 216.800 C 276.356 216.800,276.902 217.462,277.159 218.270 C 277.785 220.244,281.910 224.800,283.071 224.800 C 283.582 224.800,284.000 225.078,284.000 225.418 C 284.000 226.783,289.467 228.765,293.800 228.971 C 296.330 229.092,298.400 229.535,298.400 229.955 C 298.400 230.376,298.832 230.288,299.360 229.760 C 299.888 229.232,302.228 228.800,304.560 228.800 C 306.892 228.800,308.800 228.479,308.800 228.087 C 308.800 227.694,309.700 227.148,310.800 226.871 C 311.900 226.595,312.800 226.016,312.800 225.585 C 312.800 225.153,313.186 224.800,313.657 224.800 C 314.605 224.800,316.800 222.825,316.800 221.972 C 316.800 221.674,317.700 220.722,318.800 219.857 C 319.900 218.992,320.800 217.634,320.800 216.840 C 320.800 216.046,321.340 214.948,322.000 214.400 C 322.932 213.626,323.200 211.458,323.200 204.677 C 323.200 197.657,322.965 195.860,322.000 195.489 C 321.340 195.236,320.792 194.257,320.782 193.314 C 320.744 189.828,309.559 180.800,305.277 180.800 C 304.134 180.800,303.200 180.440,303.200 180.000 C 303.200 179.021,294.666 178.923,294.065 179.895 M69.603 188.642 C 66.420 190.807,63.200 194.348,63.200 195.685 C 63.200 196.361,62.660 197.454,62.000 198.114 C 60.358 199.756,60.358 208.244,62.000 209.886 C 62.660 210.546,63.200 211.805,63.200 212.685 C 63.200 213.564,64.100 214.992,65.200 215.857 C 66.300 216.722,67.200 217.828,67.200 218.315 C 67.200 218.802,67.740 219.200,68.400 219.200 C 69.060 219.200,69.600 219.560,69.600 220.000 C 69.600 220.440,70.830 220.800,72.333 220.800 C 73.837 220.800,75.189 221.166,75.338 221.613 C 75.775 222.926,80.542 223.168,82.138 221.959 C 82.942 221.350,84.518 220.839,85.641 220.825 C 87.905 220.797,93.660 215.542,95.625 211.709 C 96.914 209.195,97.293 197.600,96.087 197.600 C 95.694 197.600,95.148 196.700,94.871 195.600 C 94.595 194.500,94.016 193.600,93.585 193.600 C 93.153 193.600,92.800 193.214,92.800 192.743 C 92.800 187.949,75.198 184.837,69.603 188.642 M75.200 230.000 C 74.652 230.660,73.258 231.211,72.102 231.225 C 70.015 231.251,67.200 232.829,67.200 233.973 C 67.200 234.301,66.300 235.278,65.200 236.143 C 64.100 237.008,63.200 238.366,63.200 239.160 C 63.200 239.954,62.660 241.052,62.000 241.600 C 61.165 242.293,60.800 244.132,60.800 247.641 C 60.800 251.059,61.187 253.073,62.000 253.886 C 62.660 254.546,63.200 255.639,63.200 256.315 C 63.200 257.895,67.255 262.056,69.485 262.763 C 70.428 263.063,71.200 263.644,71.200 264.054 C 71.200 264.464,74.620 264.800,78.800 264.800 C 82.980 264.800,86.400 264.479,86.400 264.087 C 86.400 263.694,87.300 263.148,88.400 262.871 C 89.500 262.595,90.400 262.016,90.400 261.585 C 90.400 261.153,90.940 260.800,91.600 260.800 C 92.260 260.800,92.800 260.260,92.800 259.600 C 92.800 258.940,93.153 258.400,93.585 258.400 C 94.016 258.400,94.595 257.500,94.871 256.400 C 95.148 255.300,95.694 254.400,96.087 254.400 C 96.479 254.400,96.800 251.520,96.800 248.000 C 96.800 244.267,96.467 241.600,96.000 241.600 C 95.560 241.600,95.200 240.840,95.200 239.912 C 95.200 237.460,88.583 231.200,85.991 231.200 C 84.844 231.200,84.101 230.884,84.340 230.497 C 85.405 228.775,76.614 228.296,75.200 230.000 M289.089 258.000 C 288.836 258.660,287.940 259.200,287.097 259.200 C 286.255 259.200,283.684 261.118,281.383 263.462 C 275.668 269.285,275.200 269.985,275.200 272.700 C 275.200 274.001,274.832 275.189,274.381 275.340 C 273.931 275.490,273.347 276.940,273.084 278.562 C 272.491 282.216,273.436 288.996,274.451 288.368 C 274.863 288.114,275.200 288.786,275.200 289.861 C 275.200 294.913,284.576 304.730,289.491 304.825 C 290.211 304.839,291.499 305.379,292.353 306.025 C 294.464 307.622,302.681 307.604,304.286 306.000 C 304.946 305.340,306.591 304.800,307.943 304.800 C 309.294 304.800,310.400 304.464,310.400 304.054 C 310.400 303.644,311.111 303.082,311.980 302.806 C 313.405 302.354,317.174 298.928,319.800 295.698 C 320.350 295.021,320.800 293.771,320.800 292.919 C 320.800 292.068,321.340 291.164,322.000 290.911 C 322.966 290.540,323.200 288.738,323.200 281.682 C 323.200 274.955,322.921 272.635,322.000 271.714 C 321.340 271.054,320.800 269.993,320.800 269.356 C 320.800 267.367,314.628 261.534,309.964 259.114 C 304.652 256.358,290.019 255.577,289.089 258.000 M71.489 274.000 C 71.236 274.660,70.342 275.200,69.503 275.200 C 67.777 275.200,63.272 279.772,63.198 281.600 C 63.171 282.260,62.621 283.499,61.975 284.353 C 60.378 286.464,60.396 294.681,62.000 296.286 C 62.660 296.946,63.200 298.079,63.200 298.804 C 63.200 300.269,67.386 304.800,68.738 304.800 C 69.212 304.800,69.600 305.111,69.600 305.491 C 69.600 307.629,82.411 309.924,83.600 308.000 C 83.872 307.560,84.984 307.200,86.072 307.200 C 87.160 307.200,88.257 306.660,88.511 306.000 C 88.764 305.340,89.318 304.800,89.743 304.800 C 90.781 304.800,92.800 302.724,92.800 301.657 C 92.800 301.186,93.340 300.800,94.000 300.800 C 94.660 300.800,95.200 300.101,95.200 299.247 C 95.200 298.393,95.560 297.472,96.000 297.200 C 96.440 296.928,96.800 294.048,96.800 290.800 C 96.800 287.552,96.440 284.672,96.000 284.400 C 95.560 284.128,95.200 283.265,95.200 282.482 C 95.200 280.519,90.513 275.200,88.784 275.200 C 88.007 275.200,87.164 274.660,86.911 274.000 C 86.548 273.055,84.907 272.800,79.200 272.800 C 73.493 272.800,71.852 273.055,71.489 274.000 " stroke="none" fill="#c0d62d" fill-rule="evenodd"></path><path id="path1" d="M280.800 69.513 C 280.800 69.900,281.700 70.806,282.800 71.526 C 283.900 72.247,284.800 72.714,284.800 72.563 C 284.800 72.412,283.900 71.506,282.800 70.550 C 281.700 69.593,280.800 69.127,280.800 69.513 M296.400 100.000 C 296.118 100.456,296.807 100.800,298.000 100.800 C 299.193 100.800,299.882 100.456,299.600 100.000 C 299.328 99.560,298.608 99.200,298.000 99.200 C 297.392 99.200,296.672 99.560,296.400 100.000 M282.412 104.763 C 281.319 105.603,280.599 106.448,280.812 106.641 C 281.025 106.834,282.092 106.139,283.183 105.096 C 285.563 102.821,285.164 102.648,282.412 104.763 M224.800 124.840 L 222.800 126.444 225.000 125.494 C 226.210 124.971,227.200 124.241,227.200 123.872 C 227.200 122.959,227.089 123.004,224.800 124.840 M259.200 123.437 C 259.200 123.588,260.100 124.494,261.200 125.450 C 262.300 126.407,263.200 126.873,263.200 126.487 C 263.200 126.100,262.300 125.194,261.200 124.474 C 260.100 123.753,259.200 123.286,259.200 123.437 M273.610 211.218 C 274.602 213.072,275.200 213.248,275.200 211.686 C 275.200 211.073,274.652 210.361,273.981 210.104 C 272.987 209.722,272.919 209.927,273.610 211.218 M82.047 222.025 C 81.193 222.671,80.854 223.200,81.294 223.200 C 81.734 223.200,82.793 222.671,83.647 222.025 C 84.501 221.379,84.840 220.851,84.400 220.851 C 83.960 220.851,82.901 221.379,82.047 222.025 M73.600 230.000 C 73.044 230.669,72.958 231.200,73.404 231.200 C 73.844 231.200,74.652 230.660,75.200 230.000 C 75.756 229.331,75.842 228.800,75.396 228.800 C 74.956 228.800,74.148 229.340,73.600 230.000 M205.668 246.047 C 204.187 247.561,203.234 248.800,203.549 248.800 C 204.336 248.800,209.073 244.006,208.677 243.611 C 208.503 243.436,207.148 244.532,205.668 246.047 M280.521 262.476 C 278.450 264.894,279.375 265.168,281.603 262.797 C 282.635 261.699,283.136 260.800,282.717 260.800 C 282.298 260.800,281.310 261.554,280.521 262.476 M273.638 274.754 C 273.094 275.410,272.834 276.408,273.061 276.973 C 273.331 277.646,273.495 277.540,273.537 276.667 C 273.572 275.933,274.050 275.173,274.600 274.976 C 275.150 274.780,275.381 274.381,275.114 274.090 C 274.847 273.799,274.183 274.098,273.638 274.754 " stroke="none" fill="#ffff00" fill-rule="evenodd"></path><path id="path2" d="" stroke="none" fill="#00ffff" fill-rule="evenodd"></path><path id="path3" d="M343.351 0.537 C 342.334 0.750,341.306 1.436,341.065 2.062 C 340.825 2.688,340.109 3.200,339.474 3.200 C 338.106 3.200,332.809 8.759,332.804 10.200 C 332.802 10.750,332.440 11.200,332.000 11.200 C 331.560 11.200,331.200 11.946,331.200 12.857 C 331.200 13.769,330.660 15.054,330.000 15.714 C 329.096 16.619,328.800 18.857,328.800 24.800 C 328.800 30.743,329.096 32.981,330.000 33.886 C 330.660 34.546,331.200 35.794,331.200 36.659 C 331.200 37.524,332.094 39.080,333.186 40.116 C 334.279 41.152,335.179 42.404,335.186 42.897 C 335.194 43.390,336.458 44.650,337.995 45.697 C 339.532 46.744,340.792 47.870,340.795 48.200 C 340.798 48.530,341.661 48.800,342.714 48.800 C 343.767 48.800,344.836 49.340,345.089 50.000 C 345.765 51.761,364.938 51.761,366.400 50.000 C 366.948 49.340,367.982 48.789,368.698 48.775 C 370.346 48.742,372.800 46.910,372.800 45.712 C 372.800 45.210,373.186 44.800,373.657 44.800 C 374.724 44.800,376.800 42.781,376.800 41.743 C 376.800 41.318,377.340 40.764,378.000 40.511 C 378.660 40.257,379.200 39.319,379.200 38.425 C 379.200 37.531,379.560 36.800,380.000 36.800 C 380.440 36.800,380.811 35.990,380.825 35.000 C 380.839 34.010,381.379 32.501,382.025 31.647 C 383.659 29.487,383.641 19.762,382.000 18.400 C 381.340 17.852,380.800 16.368,380.800 15.102 C 380.800 13.836,380.440 12.800,380.000 12.800 C 379.560 12.800,379.200 12.231,379.200 11.536 C 379.200 10.841,376.979 8.051,374.265 5.336 L 369.331 0.400 357.265 0.275 C 350.629 0.206,344.368 0.324,343.351 0.537 M229.089 58.000 C 228.836 58.660,227.932 59.200,227.080 59.200 C 225.281 59.200,219.200 64.547,219.200 66.129 C 219.200 66.718,218.660 67.200,218.000 67.200 C 217.253 67.200,216.800 67.956,216.800 69.200 C 216.800 70.300,216.440 71.200,216.000 71.200 C 215.515 71.200,215.200 74.667,215.200 80.000 C 215.200 85.333,215.515 88.800,216.000 88.800 C 216.440 88.800,216.800 89.700,216.800 90.800 C 216.800 92.044,217.253 92.800,218.000 92.800 C 218.660 92.800,219.200 93.188,219.200 93.663 C 219.200 95.001,225.764 100.800,227.279 100.800 C 228.021 100.800,228.836 101.340,229.089 102.000 C 229.456 102.955,231.169 103.200,237.477 103.200 C 243.547 103.200,245.637 102.919,246.400 102.000 C 246.948 101.340,247.982 100.789,248.698 100.775 C 250.346 100.742,252.800 98.910,252.800 97.712 C 252.800 97.210,253.186 96.800,253.657 96.800 C 254.724 96.800,256.800 94.781,256.800 93.743 C 256.800 93.318,257.340 92.764,258.000 92.511 C 258.660 92.257,259.200 91.319,259.200 90.425 C 259.200 89.531,259.560 88.800,260.000 88.800 C 260.485 88.800,260.800 85.333,260.800 80.000 C 260.800 74.667,260.485 71.200,260.000 71.200 C 259.560 71.200,259.200 70.300,259.200 69.200 C 259.200 67.956,258.747 67.200,258.000 67.200 C 257.340 67.200,256.800 66.718,256.800 66.129 C 256.800 64.547,250.719 59.200,248.920 59.200 C 248.068 59.200,247.164 58.660,246.911 58.000 C 246.542 57.038,244.773 56.800,238.000 56.800 C 231.227 56.800,229.458 57.038,229.089 58.000 M347.600 84.000 C 347.328 84.440,346.227 84.800,345.153 84.800 C 343.950 84.800,343.200 85.261,343.200 86.000 C 343.200 86.676,342.485 87.200,341.562 87.200 C 339.616 87.200,332.800 93.665,332.800 95.512 C 332.800 96.220,332.440 96.800,332.000 96.800 C 331.560 96.800,331.200 97.661,331.200 98.714 C 331.200 99.767,330.660 100.836,330.000 101.089 C 329.038 101.458,328.800 103.227,328.800 110.000 C 328.800 116.773,329.038 118.542,330.000 118.911 C 330.660 119.164,331.200 120.012,331.200 120.794 C 331.200 124.042,338.467 132.800,341.162 132.800 C 341.871 132.800,342.657 133.340,342.911 134.000 C 343.164 134.660,344.233 135.200,345.286 135.200 C 346.339 135.200,347.200 135.560,347.200 136.000 C 347.200 136.482,350.518 136.800,355.553 136.800 C 360.258 136.800,364.121 136.451,364.400 136.000 C 364.672 135.560,365.604 135.200,366.472 135.200 C 367.340 135.200,368.257 134.660,368.511 134.000 C 368.764 133.340,369.588 132.800,370.342 132.800 C 371.943 132.800,376.800 128.686,376.800 127.329 C 376.800 126.818,377.070 126.398,377.400 126.395 C 378.490 126.386,380.800 121.511,380.800 119.221 C 380.800 117.959,381.327 116.769,382.000 116.511 C 382.908 116.162,383.200 114.694,383.200 110.482 C 383.200 106.600,382.837 104.551,382.000 103.714 C 381.340 103.054,380.800 101.409,380.800 100.057 C 380.800 98.706,380.482 97.600,380.093 97.600 C 379.705 97.600,379.175 96.970,378.917 96.200 C 377.761 92.758,372.477 87.263,370.286 87.223 C 369.563 87.211,368.764 86.660,368.511 86.000 C 368.242 85.299,367.043 84.800,365.625 84.800 C 364.291 84.800,363.200 84.440,363.200 84.000 C 363.200 83.523,360.149 83.200,355.647 83.200 C 351.475 83.200,347.873 83.558,347.600 84.000 M178.200 85.914 C 177.493 86.621,175.629 87.200,174.057 87.200 C 172.486 87.200,171.200 87.560,171.200 88.000 C 171.200 88.440,170.750 88.812,170.200 88.827 C 168.706 88.866,166.310 91.200,163.400 95.449 C 160.368 99.878,159.330 115.486,162.000 116.511 C 162.660 116.764,163.200 117.680,163.200 118.547 C 163.200 119.995,167.193 124.800,168.396 124.800 C 168.681 124.800,169.454 125.340,170.114 126.000 C 170.774 126.660,172.189 127.200,173.257 127.200 C 174.326 127.200,175.200 127.560,175.200 128.000 C 175.200 128.471,178.000 128.800,182.000 128.800 C 186.000 128.800,188.800 128.471,188.800 128.000 C 188.800 127.560,189.700 127.200,190.800 127.200 C 192.044 127.200,192.800 126.747,192.800 126.000 C 192.800 125.320,193.517 124.800,194.457 124.800 C 196.939 124.800,200.800 120.177,200.800 117.207 C 200.800 116.651,201.340 115.748,202.000 115.200 C 202.902 114.451,203.200 112.436,203.200 107.077 C 203.200 101.480,202.942 99.851,202.000 99.489 C 201.340 99.236,200.800 98.301,200.800 97.411 C 200.800 94.639,192.345 87.200,189.195 87.200 C 187.731 87.200,186.406 86.817,186.249 86.348 C 185.737 84.812,179.632 84.482,178.200 85.914 M123.200 116.000 C 123.200 116.440,122.469 116.800,121.575 116.800 C 120.681 116.800,119.743 117.340,119.489 118.000 C 119.236 118.660,118.682 119.200,118.257 119.200 C 117.833 119.200,116.971 119.714,116.343 120.343 C 115.714 120.971,115.200 121.833,115.200 122.257 C 115.200 122.682,114.660 123.236,114.000 123.489 C 113.340 123.743,112.800 124.681,112.800 125.575 C 112.800 126.469,112.440 127.200,112.000 127.200 C 111.523 127.200,111.200 130.267,111.200 134.800 C 111.200 139.333,111.523 142.400,112.000 142.400 C 112.440 142.400,112.800 143.185,112.800 144.144 C 112.800 146.127,119.481 152.785,121.511 152.825 C 122.220 152.839,123.499 153.379,124.353 154.025 C 126.513 155.659,136.238 155.641,137.600 154.000 C 138.148 153.340,139.234 152.800,140.014 152.800 C 142.014 152.800,148.800 146.172,148.800 144.218 C 148.800 143.326,149.340 142.148,150.000 141.600 C 150.866 140.881,151.200 138.979,151.200 134.759 C 151.200 130.630,150.848 128.562,150.000 127.714 C 149.340 127.054,148.800 125.932,148.800 125.219 C 148.800 123.556,142.168 116.800,140.535 116.800 C 139.853 116.800,139.072 116.440,138.800 116.000 C 138.527 115.558,134.925 115.200,130.753 115.200 C 126.251 115.200,123.200 115.523,123.200 116.000 M176.800 146.000 C 176.252 146.660,174.768 147.200,173.502 147.200 C 172.236 147.200,171.200 147.560,171.200 148.000 C 171.200 148.440,170.654 148.800,169.986 148.800 C 168.524 148.800,163.200 154.112,163.200 155.571 C 163.200 156.139,162.660 157.052,162.000 157.600 C 161.068 158.374,160.800 160.542,160.800 167.323 C 160.800 174.343,161.035 176.140,162.000 176.511 C 162.660 176.764,163.200 177.680,163.200 178.547 C 163.200 180.442,167.356 184.800,169.164 184.800 C 169.871 184.800,170.657 185.340,170.911 186.000 C 171.164 186.660,172.233 187.200,173.286 187.200 C 174.339 187.200,175.200 187.560,175.200 188.000 C 175.200 188.466,177.851 188.800,181.553 188.800 C 185.047 188.800,188.128 188.440,188.400 188.000 C 188.672 187.560,189.773 187.200,190.847 187.200 C 192.050 187.200,192.800 186.739,192.800 186.000 C 192.800 185.340,193.470 184.800,194.288 184.800 C 195.106 184.800,196.456 183.860,197.288 182.711 C 198.120 181.563,199.250 180.148,199.800 179.568 C 200.350 178.989,200.800 177.807,200.800 176.943 C 200.800 176.078,201.340 175.164,202.000 174.911 C 202.951 174.546,203.200 172.865,203.200 166.825 C 203.200 160.581,202.983 159.200,202.000 159.200 C 201.253 159.200,200.800 158.444,200.800 157.200 C 200.800 156.100,200.482 155.200,200.093 155.200 C 199.705 155.200,199.199 154.482,198.969 153.604 C 198.740 152.726,197.896 151.756,197.094 151.448 C 196.291 151.141,194.866 150.059,193.926 149.044 C 192.870 147.905,191.295 147.200,189.806 147.200 C 188.481 147.200,186.948 146.660,186.400 146.000 C 185.770 145.241,184.005 144.800,181.600 144.800 C 179.195 144.800,177.430 145.241,176.800 146.000 M345.600 170.000 C 345.052 170.660,343.948 171.200,343.146 171.200 C 340.963 171.200,331.200 181.290,331.200 183.546 C 331.200 184.568,330.660 185.852,330.000 186.400 C 329.083 187.161,328.800 189.244,328.800 195.241 C 328.800 201.147,329.096 203.382,330.000 204.286 C 330.660 204.946,331.200 206.231,331.200 207.143 C 331.200 208.054,331.560 208.800,332.000 208.800 C 332.440 208.800,332.800 209.314,332.800 209.943 C 332.800 211.554,337.922 216.800,339.494 216.800 C 340.213 216.800,340.800 217.134,340.800 217.541 C 340.800 218.690,345.579 220.800,348.180 220.800 C 349.464 220.800,351.054 221.340,351.714 222.000 C 353.248 223.533,357.635 223.547,359.647 222.025 C 360.501 221.379,362.550 220.839,364.200 220.825 C 365.850 220.811,367.200 220.440,367.200 220.000 C 367.200 219.560,367.870 219.200,368.688 219.200 C 369.506 219.200,370.852 218.300,371.678 217.200 C 372.504 216.100,373.634 215.200,374.190 215.200 C 374.745 215.200,375.200 214.739,375.200 214.177 C 375.200 213.614,375.937 212.624,376.839 211.977 C 378.759 210.597,380.800 206.808,380.800 204.620 C 380.800 203.776,381.340 202.546,382.000 201.886 C 382.832 201.054,383.200 199.014,383.200 195.241 C 383.200 191.377,382.852 189.507,382.000 188.800 C 381.340 188.252,380.800 186.768,380.800 185.502 C 380.800 184.236,380.440 183.200,380.000 183.200 C 379.560 183.200,379.200 182.469,379.200 181.575 C 379.200 180.681,378.660 179.743,378.000 179.489 C 377.340 179.236,376.800 178.682,376.800 178.257 C 376.800 177.219,374.724 175.200,373.657 175.200 C 373.186 175.200,372.800 174.660,372.800 174.000 C 372.800 173.340,372.260 172.800,371.600 172.800 C 370.940 172.800,370.400 172.440,370.400 172.000 C 370.400 171.560,369.654 171.200,368.743 171.200 C 367.831 171.200,366.546 170.660,365.886 170.000 C 364.961 169.075,362.614 168.800,355.641 168.800 C 348.577 168.800,346.378 169.063,345.600 170.000 M35.600 174.400 C 35.328 174.840,33.957 175.211,32.553 175.225 C 29.849 175.252,27.200 176.768,27.200 178.288 C 27.200 178.790,26.660 179.200,26.000 179.200 C 25.340 179.200,24.800 179.740,24.800 180.400 C 24.800 181.060,24.440 181.600,24.000 181.600 C 21.787 181.600,23.107 197.207,25.552 199.946 C 30.668 205.677,48.761 207.120,48.794 201.800 C 48.797 201.250,49.340 200.800,50.000 200.800 C 50.660 200.800,51.200 200.260,51.200 199.600 C 51.200 198.940,51.560 198.400,52.000 198.400 C 52.483 198.400,52.790 195.150,52.775 190.200 C 52.749 182.103,51.941 179.200,49.712 179.200 C 49.210 179.200,48.800 178.790,48.800 178.288 C 48.800 176.855,46.209 175.253,43.847 175.225 C 42.663 175.211,41.472 174.840,41.200 174.400 C 40.928 173.960,39.668 173.600,38.400 173.600 C 37.132 173.600,35.872 173.960,35.600 174.400 M230.400 194.000 C 229.852 194.660,228.638 195.211,227.702 195.225 C 225.721 195.255,223.200 196.970,223.200 198.288 C 223.200 198.790,222.814 199.200,222.343 199.200 C 221.276 199.200,219.200 201.219,219.200 202.257 C 219.200 202.682,218.660 203.236,218.000 203.489 C 217.340 203.743,216.800 204.681,216.800 205.575 C 216.800 206.469,216.440 207.200,216.000 207.200 C 215.515 207.200,215.200 210.667,215.200 216.000 C 215.200 221.333,215.515 224.800,216.000 224.800 C 216.440 224.800,216.800 225.661,216.800 226.714 C 216.800 227.767,217.340 228.836,218.000 229.089 C 218.660 229.343,219.200 230.051,219.200 230.663 C 219.200 231.275,220.140 232.456,221.289 233.288 C 222.437 234.120,223.852 235.250,224.432 235.800 C 225.011 236.350,225.827 236.800,226.245 236.800 C 226.662 236.800,227.452 237.340,228.000 238.000 C 230.518 241.034,247.384 239.326,251.697 235.600 C 252.206 235.160,253.563 234.120,254.711 233.288 C 255.860 232.456,256.800 231.106,256.800 230.288 C 256.800 229.470,257.340 228.800,258.000 228.800 C 258.747 228.800,259.200 228.044,259.200 226.800 C 259.200 225.700,259.560 224.800,260.000 224.800 C 260.482 224.800,260.800 221.482,260.800 216.447 C 260.800 211.742,260.451 207.879,260.000 207.600 C 259.560 207.328,259.200 206.396,259.200 205.528 C 259.200 204.660,258.660 203.743,258.000 203.489 C 257.340 203.236,256.800 202.682,256.800 202.257 C 256.800 201.219,254.724 199.200,253.657 199.200 C 253.186 199.200,252.800 198.660,252.800 198.000 C 252.800 197.340,252.260 196.800,251.600 196.800 C 250.940 196.800,250.400 196.440,250.400 196.000 C 250.400 195.560,249.544 195.200,248.498 195.200 C 247.452 195.200,246.148 194.660,245.600 194.000 C 244.862 193.111,242.894 192.800,238.000 192.800 C 233.106 192.800,231.138 193.111,230.400 194.000 M34.800 208.000 C 34.528 208.440,33.387 208.800,32.265 208.800 C 30.908 208.800,29.046 209.994,26.712 212.362 L 23.200 215.924 23.200 223.071 C 23.200 231.673,25.429 236.800,29.168 236.800 C 29.873 236.800,30.657 237.340,30.911 238.000 C 31.269 238.933,32.846 239.200,38.000 239.200 C 43.154 239.200,44.731 238.933,45.089 238.000 C 45.343 237.340,46.159 236.800,46.904 236.800 C 50.704 236.800,52.800 232.185,52.800 223.818 L 52.800 215.924 49.288 212.362 C 47.357 210.403,45.038 208.800,44.135 208.800 C 43.233 208.800,42.272 208.440,42.000 208.000 C 41.728 207.560,40.108 207.200,38.400 207.200 C 36.692 207.200,35.072 207.560,34.800 208.000 M126.114 218.000 C 125.454 218.660,124.210 219.200,123.349 219.200 C 120.441 219.200,115.200 222.765,115.200 224.743 C 115.200 225.214,114.847 225.600,114.415 225.600 C 113.984 225.600,113.405 226.500,113.129 227.600 C 112.852 228.700,112.306 229.600,111.913 229.600 C 111.521 229.600,111.200 233.020,111.200 237.200 C 111.200 241.733,111.523 244.800,112.000 244.800 C 112.440 244.800,112.800 245.700,112.800 246.800 C 112.800 248.044,113.253 248.800,114.000 248.800 C 114.660 248.800,115.200 249.186,115.200 249.657 C 115.200 250.765,117.235 252.800,118.343 252.800 C 118.814 252.800,119.200 253.340,119.200 254.000 C 119.200 254.660,119.899 255.200,120.753 255.200 C 121.607 255.200,122.528 255.560,122.800 256.000 C 123.076 256.447,126.808 256.800,131.247 256.800 C 136.016 256.800,139.200 256.480,139.200 256.000 C 139.200 255.560,139.780 255.200,140.488 255.200 C 142.156 255.200,148.800 248.470,148.800 246.781 C 148.800 246.068,149.340 244.946,150.000 244.286 C 150.848 243.438,151.200 241.368,151.200 237.228 C 151.200 232.760,150.915 231.262,150.000 230.911 C 149.340 230.657,148.800 229.940,148.800 229.317 C 148.800 226.408,144.241 220.800,141.878 220.800 C 141.285 220.800,140.800 220.440,140.800 220.000 C 140.800 219.560,140.054 219.200,139.143 219.200 C 138.231 219.200,136.946 218.660,136.286 218.000 C 135.548 217.263,133.587 216.800,131.200 216.800 C 128.813 216.800,126.852 217.263,126.114 218.000 M31.200 244.000 C 31.200 244.440,30.716 244.800,30.124 244.800 C 28.482 244.800,24.800 248.275,24.800 249.825 C 24.800 250.581,24.440 251.200,24.000 251.200 C 23.524 251.200,23.200 254.212,23.200 258.635 L 23.200 266.071 26.337 269.435 C 28.063 271.286,30.185 272.800,31.052 272.800 C 31.919 272.800,32.836 273.340,33.089 274.000 C 33.412 274.841,34.724 275.200,37.477 275.200 C 39.992 275.200,41.762 274.768,42.400 274.000 C 42.948 273.340,44.114 272.800,44.992 272.800 C 45.870 272.800,47.986 271.402,49.694 269.694 L 52.800 266.588 52.800 259.386 C 52.800 255.143,52.387 251.406,51.795 250.291 C 50.137 247.169,47.733 244.800,46.222 244.800 C 45.440 244.800,44.800 244.440,44.800 244.000 C 44.800 243.529,42.000 243.200,38.000 243.200 C 34.000 243.200,31.200 243.529,31.200 244.000 M350.114 254.000 C 349.454 254.660,347.629 255.200,346.057 255.200 C 344.486 255.200,343.200 255.560,343.200 256.000 C 343.200 256.440,342.668 256.800,342.019 256.800 C 340.343 256.800,332.800 264.191,332.800 265.833 C 332.800 266.585,332.440 267.200,332.000 267.200 C 331.560 267.200,331.200 268.061,331.200 269.114 C 331.200 270.167,330.660 271.236,330.000 271.489 C 329.040 271.858,328.800 273.614,328.800 280.289 C 328.800 286.964,329.040 288.721,330.000 289.089 C 330.701 289.358,331.200 290.557,331.200 291.975 C 331.200 293.309,331.560 294.400,332.000 294.400 C 332.440 294.400,332.800 294.940,332.800 295.600 C 332.800 296.260,333.340 296.800,334.000 296.800 C 334.660 296.800,335.200 297.186,335.200 297.657 C 335.200 298.765,337.235 300.800,338.343 300.800 C 338.814 300.800,339.200 301.340,339.200 302.000 C 339.200 302.660,339.740 303.200,340.400 303.200 C 341.060 303.200,341.600 303.560,341.600 304.000 C 341.600 304.440,342.456 304.800,343.502 304.800 C 344.548 304.800,345.852 305.340,346.400 306.000 C 347.169 306.926,349.297 307.200,355.723 307.200 C 362.387 307.200,364.142 306.960,364.511 306.000 C 364.764 305.340,365.833 304.800,366.886 304.800 C 367.939 304.800,368.800 304.440,368.800 304.000 C 368.800 303.560,369.531 303.200,370.425 303.200 C 371.319 303.200,372.257 302.660,372.511 302.000 C 372.764 301.340,373.318 300.800,373.743 300.800 C 374.741 300.800,376.800 298.741,376.800 297.743 C 376.800 297.318,377.340 296.764,378.000 296.511 C 378.660 296.257,379.200 295.319,379.200 294.425 C 379.200 293.531,379.560 292.800,380.000 292.800 C 380.440 292.800,380.800 291.579,380.800 290.086 C 380.800 288.411,381.260 287.195,382.000 286.911 C 382.908 286.562,383.200 285.094,383.200 280.882 C 383.200 277.000,382.837 274.951,382.000 274.114 C 381.340 273.454,380.800 271.861,380.800 270.574 C 380.800 269.186,379.986 267.355,378.800 266.076 C 377.700 264.889,376.800 263.576,376.800 263.159 C 376.800 261.965,373.727 259.200,372.400 259.200 C 371.740 259.200,371.200 258.866,371.200 258.459 C 371.200 257.429,366.532 255.200,364.375 255.200 C 363.397 255.200,362.148 254.660,361.600 254.000 C 360.924 253.185,359.112 252.800,355.959 252.800 C 352.897 252.800,350.905 253.209,350.114 254.000 M231.489 262.000 C 231.236 262.660,230.239 263.200,229.274 263.200 C 226.841 263.200,223.214 264.993,223.206 266.200 C 223.203 266.750,222.814 267.200,222.343 267.200 C 221.276 267.200,219.200 269.219,219.200 270.257 C 219.200 270.682,218.660 271.236,218.000 271.489 C 217.340 271.743,216.800 272.660,216.800 273.528 C 216.800 274.396,216.440 275.328,216.000 275.600 C 214.990 276.224,214.940 291.534,215.942 293.411 C 216.349 294.175,216.887 295.340,217.137 296.000 C 218.533 299.698,223.475 304.800,225.658 304.800 C 226.412 304.800,227.236 305.340,227.489 306.000 C 227.792 306.788,229.041 307.200,231.128 307.200 C 232.876 307.200,234.528 307.560,234.800 308.000 C 235.072 308.440,236.332 308.800,237.600 308.800 C 238.868 308.800,240.128 308.440,240.400 308.000 C 240.672 307.560,242.504 307.200,244.472 307.200 C 246.915 307.200,248.196 306.819,248.511 306.000 C 248.764 305.340,249.563 304.789,250.286 304.777 C 252.027 304.745,256.800 300.356,256.800 298.786 C 256.800 298.106,257.340 297.343,258.000 297.089 C 258.660 296.836,259.200 295.767,259.200 294.714 C 259.200 293.661,259.560 292.800,260.000 292.800 C 261.427 292.800,260.977 277.738,259.446 274.269 C 258.701 272.581,257.801 271.200,257.446 271.200 C 257.091 271.200,256.800 270.814,256.800 270.343 C 256.800 269.235,254.765 267.200,253.657 267.200 C 253.186 267.200,252.800 266.660,252.800 266.000 C 252.800 265.340,252.101 264.800,251.247 264.800 C 250.393 264.800,249.472 264.440,249.200 264.000 C 248.928 263.560,247.865 263.200,246.838 263.200 C 245.811 263.200,244.764 262.660,244.511 262.000 C 244.158 261.080,242.640 260.800,238.000 260.800 C 233.360 260.800,231.842 261.080,231.489 262.000 M177.089 266.000 C 176.833 266.667,175.645 267.200,174.413 267.200 C 170.472 267.200,163.200 275.237,163.200 279.593 C 163.200 280.589,162.660 281.852,162.000 282.400 C 161.318 282.966,160.800 284.710,160.800 286.441 C 160.800 288.116,161.340 290.026,162.000 290.686 C 162.660 291.346,163.200 292.991,163.200 294.343 C 163.200 295.694,163.560 296.800,164.000 296.800 C 164.440 296.800,164.800 297.371,164.800 298.069 C 164.800 299.792,169.629 304.800,171.290 304.800 C 172.027 304.800,172.836 305.340,173.089 306.000 C 173.356 306.694,174.552 307.200,175.928 307.200 C 177.236 307.200,178.528 307.560,178.800 308.000 C 179.072 308.440,181.232 308.800,183.600 308.800 C 185.968 308.800,188.128 308.440,188.400 308.000 C 188.672 307.560,189.747 307.200,190.790 307.200 C 191.833 307.200,193.226 306.660,193.886 306.000 C 194.546 305.340,195.349 304.800,195.670 304.800 C 196.808 304.800,203.200 297.215,203.200 295.865 C 203.200 295.111,203.560 294.272,204.000 294.000 C 204.440 293.728,204.800 290.287,204.800 286.353 C 204.800 282.118,204.474 279.200,204.000 279.200 C 203.560 279.200,203.200 278.469,203.200 277.575 C 203.200 276.681,202.660 275.743,202.000 275.489 C 201.340 275.236,200.800 274.679,200.800 274.252 C 200.800 272.910,194.143 267.200,192.578 267.200 C 191.757 267.200,190.546 266.660,189.886 266.000 C 189.049 265.163,187.000 264.800,183.118 264.800 C 178.906 264.800,177.438 265.092,177.089 266.000 M123.489 270.000 C 123.236 270.660,122.330 271.200,121.477 271.200 C 119.621 271.200,112.800 277.697,112.800 279.465 C 112.800 280.147,112.440 280.928,112.000 281.200 C 111.558 281.473,111.200 285.075,111.200 289.247 C 111.200 293.749,111.523 296.800,112.000 296.800 C 112.440 296.800,112.800 297.531,112.800 298.425 C 112.800 299.319,113.340 300.257,114.000 300.511 C 114.660 300.764,115.200 301.318,115.200 301.743 C 115.200 302.781,117.276 304.800,118.343 304.800 C 118.814 304.800,119.200 305.091,119.200 305.446 C 119.200 306.959,125.566 308.800,130.800 308.800 C 136.034 308.800,142.400 306.959,142.400 305.446 C 142.400 305.091,142.818 304.800,143.329 304.800 C 144.621 304.800,148.794 299.984,148.825 298.456 C 148.839 297.765,149.379 296.501,150.025 295.647 C 151.653 293.495,151.635 283.749,150.000 282.114 C 149.340 281.454,148.800 280.169,148.800 279.257 C 148.800 278.346,148.440 277.600,148.000 277.600 C 147.560 277.600,147.200 277.060,147.200 276.400 C 147.200 275.740,146.660 275.200,146.000 275.200 C 145.340 275.200,144.800 274.790,144.800 274.288 C 144.800 273.090,142.346 271.258,140.698 271.225 C 139.982 271.211,138.948 270.660,138.400 270.000 C 137.659 269.107,135.681 268.800,130.677 268.800 C 125.435 268.800,123.848 269.065,123.489 270.000 M32.800 278.000 C 32.252 278.660,31.266 279.200,30.608 279.200 C 29.950 279.200,28.014 280.598,26.306 282.306 L 23.200 285.412 23.200 293.106 C 23.200 297.702,23.522 300.800,24.000 300.800 C 24.440 300.800,24.800 301.326,24.800 301.969 C 24.800 303.405,27.587 306.077,30.712 307.636 C 33.390 308.972,44.800 309.267,44.800 308.000 C 44.800 307.560,45.324 307.200,45.964 307.200 C 47.471 307.200,51.200 303.471,51.200 301.964 C 51.200 301.324,51.560 300.800,52.000 300.800 C 53.210 300.800,53.028 285.808,51.800 284.328 C 46.337 277.746,35.896 274.269,32.800 278.000 M150.124 310.263 C 149.396 311.068,148.800 312.148,148.800 312.663 C 148.800 313.178,148.440 313.600,148.000 313.600 C 147.481 313.600,147.200 324.000,147.200 343.200 C 147.200 360.001,147.508 372.800,147.913 372.800 C 148.306 372.800,148.852 373.700,149.129 374.800 C 149.611 376.724,149.873 376.800,156.000 376.800 C 162.127 376.800,162.389 376.724,162.871 374.800 C 163.148 373.700,163.694 372.800,164.087 372.800 C 164.492 372.800,164.800 360.001,164.800 343.200 C 164.800 324.000,164.519 313.600,164.000 313.600 C 163.560 313.600,163.200 313.240,163.200 312.800 C 163.200 309.085,152.984 307.103,150.124 310.263 M326.114 310.000 C 325.454 310.660,324.529 311.200,324.057 311.200 C 323.519 311.200,323.200 313.580,323.200 317.591 C 323.200 324.883,324.412 327.200,328.225 327.200 C 329.534 327.200,330.285 327.538,330.000 328.000 C 329.728 328.440,328.668 328.800,327.645 328.800 C 323.600 328.800,323.200 330.960,323.200 352.800 C 323.200 377.233,323.062 376.813,331.092 376.775 C 336.585 376.748,339.200 375.646,339.200 373.359 C 339.200 372.663,339.560 371.872,340.000 371.600 C 341.175 370.874,341.061 336.484,339.876 334.189 C 339.367 333.205,338.713 331.884,338.422 331.253 C 337.874 330.066,336.744 329.323,334.000 328.346 C 332.625 327.856,332.764 327.693,334.988 327.191 C 341.172 325.795,343.253 315.944,338.372 311.173 C 335.549 308.414,328.386 307.728,326.114 310.000 M28.340 328.344 C 23.106 330.166,23.200 329.709,23.200 353.200 C 23.200 378.002,22.812 376.800,30.815 376.800 C 38.962 376.800,39.134 376.446,39.199 359.600 C 39.258 344.222,39.575 343.200,44.288 343.200 C 46.667 343.200,47.200 343.493,47.200 344.800 C 47.200 345.680,47.560 346.400,48.000 346.400 C 48.502 346.400,48.800 351.541,48.800 360.222 C 48.800 376.781,48.810 376.800,57.266 376.800 C 64.888 376.800,64.800 376.983,64.800 361.225 C 64.800 348.809,64.915 347.780,66.550 345.568 C 68.269 343.243,72.800 342.107,72.800 344.000 C 72.800 344.440,73.340 344.800,74.000 344.800 C 75.021 344.800,75.200 346.892,75.200 358.828 C 75.200 376.624,75.282 376.800,83.532 376.800 C 89.666 376.800,91.200 376.057,91.200 373.087 C 91.200 372.101,91.560 371.072,92.000 370.800 C 92.484 370.501,92.800 364.807,92.800 356.400 C 92.800 347.993,92.484 342.299,92.000 342.000 C 91.560 341.728,91.200 340.256,91.200 338.728 C 91.200 336.996,90.748 335.776,90.000 335.489 C 89.340 335.236,88.800 334.682,88.800 334.257 C 88.800 333.259,86.741 331.200,85.743 331.200 C 85.318 331.200,84.764 330.660,84.511 330.000 C 84.222 329.247,82.998 328.800,81.225 328.800 C 79.671 328.800,78.400 328.440,78.400 328.000 C 78.400 327.560,76.621 327.200,74.447 327.200 C 72.273 327.200,70.272 327.560,70.000 328.000 C 69.728 328.440,68.447 328.800,67.153 328.800 C 65.683 328.800,64.800 329.215,64.800 329.907 C 64.800 331.736,60.808 332.028,59.334 330.306 C 58.558 329.400,57.000 328.800,55.422 328.800 C 53.980 328.800,52.800 328.440,52.800 328.000 C 52.800 327.560,50.841 327.200,48.447 327.200 C 46.053 327.200,43.872 327.560,43.600 328.000 C 43.328 328.440,42.357 328.800,41.441 328.800 C 40.525 328.800,39.286 329.430,38.688 330.200 C 37.651 331.533,37.559 331.533,36.760 330.200 C 36.298 329.430,35.110 328.800,34.120 328.800 C 33.130 328.800,31.978 328.505,31.560 328.144 C 31.142 327.783,29.693 327.873,28.340 328.344 M114.800 328.000 C 114.528 328.440,113.236 328.800,111.928 328.800 C 110.552 328.800,109.356 329.306,109.089 330.000 C 108.836 330.660,108.037 331.211,107.314 331.225 C 105.656 331.258,103.200 333.086,103.200 334.288 C 103.200 334.790,102.660 335.200,102.000 335.200 C 101.340 335.200,100.800 335.740,100.800 336.400 C 100.800 337.060,100.440 337.600,100.000 337.600 C 99.560 337.600,99.200 338.276,99.200 339.102 C 99.200 339.928,98.660 341.052,98.000 341.600 C 97.048 342.390,96.800 344.710,96.800 352.841 C 96.800 360.881,97.058 363.344,98.000 364.286 C 98.660 364.946,99.200 366.001,99.200 366.632 C 99.200 368.257,105.851 375.200,107.409 375.200 C 108.122 375.200,108.928 375.560,109.200 376.000 C 109.472 376.440,110.933 376.800,112.447 376.800 C 113.961 376.800,115.200 377.144,115.200 377.564 C 115.200 379.111,121.018 379.504,123.430 378.120 C 124.695 377.394,126.571 376.800,127.600 376.800 C 129.594 376.800,134.386 374.402,134.395 373.400 C 134.398 373.070,134.756 372.800,135.191 372.800 C 136.596 372.800,139.200 370.086,139.200 368.622 C 139.200 367.840,139.560 367.200,140.000 367.200 C 140.440 367.200,140.800 366.339,140.800 365.286 C 140.800 364.233,141.340 363.164,142.000 362.911 C 142.974 362.537,143.200 360.652,143.200 352.911 C 143.200 345.169,142.974 343.284,142.000 342.911 C 141.340 342.657,140.800 341.940,140.800 341.317 C 140.800 338.414,134.915 331.200,132.547 331.200 C 131.900 331.200,131.164 330.660,130.911 330.000 C 130.622 329.247,129.398 328.800,127.625 328.800 C 126.071 328.800,124.800 328.440,124.800 328.000 C 124.800 327.556,122.682 327.200,120.047 327.200 C 117.433 327.200,115.072 327.560,114.800 328.000 M185.600 328.000 C 185.600 328.440,184.721 328.800,183.647 328.800 C 182.573 328.800,181.478 329.150,181.213 329.579 C 180.949 330.007,179.487 330.948,177.966 331.670 C 176.445 332.392,175.200 333.283,175.200 333.650 C 175.200 334.017,174.300 335.289,173.200 336.476 C 172.100 337.663,171.200 339.257,171.200 340.019 C 171.200 340.781,170.660 341.852,170.000 342.400 C 169.052 343.187,168.800 345.466,168.800 353.241 C 168.800 360.925,169.063 363.349,170.000 364.286 C 170.660 364.946,171.200 366.098,171.200 366.846 C 171.200 367.594,173.212 370.140,175.672 372.503 L 180.144 376.800 176.672 376.812 C 170.562 376.834,164.997 386.591,170.000 388.511 C 170.660 388.764,171.200 389.473,171.200 390.086 C 171.200 390.699,171.740 391.200,172.400 391.200 C 173.060 391.200,173.600 391.560,173.600 392.000 C 173.600 392.440,174.456 392.800,175.502 392.800 C 176.548 392.800,177.852 393.340,178.400 394.000 C 179.194 394.957,181.555 395.200,190.041 395.200 C 198.436 395.200,200.939 394.946,201.886 394.000 C 202.546 393.340,203.831 392.800,204.743 392.800 C 205.654 392.800,206.400 392.440,206.400 392.000 C 206.400 391.560,206.940 391.200,207.600 391.200 C 208.260 391.200,208.800 390.660,208.800 390.000 C 208.800 389.340,209.210 388.800,209.712 388.800 C 210.910 388.800,212.742 386.346,212.775 384.698 C 212.789 383.982,213.340 382.948,214.000 382.400 C 216.126 380.635,215.756 332.556,213.600 330.400 C 212.720 329.520,211.640 328.800,211.200 328.800 C 210.760 328.800,210.400 328.440,210.400 328.000 C 210.400 327.560,209.320 327.200,208.000 327.200 C 206.680 327.200,205.600 327.560,205.600 328.000 C 205.600 328.440,204.998 328.800,204.263 328.800 C 203.528 328.800,202.238 329.423,201.397 330.183 C 199.949 331.494,199.828 331.494,199.095 330.183 C 198.669 329.423,197.640 328.800,196.807 328.800 C 195.975 328.800,195.072 328.440,194.800 328.000 C 194.528 327.560,192.347 327.200,189.953 327.200 C 187.559 327.200,185.600 327.560,185.600 328.000 M238.800 328.000 C 238.528 328.440,237.236 328.800,235.928 328.800 C 234.552 328.800,233.356 329.306,233.089 330.000 C 232.836 330.660,232.037 331.211,231.314 331.225 C 229.656 331.258,227.200 333.086,227.200 334.288 C 227.200 334.790,226.790 335.200,226.288 335.200 C 225.086 335.200,223.258 337.656,223.225 339.314 C 223.211 340.037,222.660 340.836,222.000 341.089 C 221.252 341.376,220.800 342.596,220.800 344.328 C 220.800 345.856,220.440 347.328,220.000 347.600 C 219.560 347.872,219.200 350.413,219.200 353.247 C 219.200 356.149,219.549 358.400,220.000 358.400 C 220.440 358.400,220.800 359.840,220.800 361.600 C 220.800 363.911,221.133 364.800,222.000 364.800 C 222.695 364.800,223.200 365.525,223.200 366.523 C 223.200 370.139,232.391 376.800,237.380 376.800 C 238.884 376.800,240.654 377.340,241.314 378.000 C 242.848 379.533,247.235 379.547,249.247 378.025 C 250.101 377.379,252.510 376.839,254.600 376.825 C 256.690 376.811,258.400 376.479,258.400 376.087 C 258.400 375.694,259.300 375.148,260.400 374.871 C 261.500 374.595,262.400 374.016,262.400 373.585 C 262.400 373.153,262.940 372.800,263.600 372.800 C 264.260 372.800,264.800 372.414,264.800 371.943 C 264.800 371.471,265.340 370.546,266.000 369.886 C 266.660 369.226,267.200 367.477,267.200 366.000 C 267.200 364.523,266.660 362.774,266.000 362.114 C 265.340 361.454,264.800 359.989,264.800 358.857 C 264.800 357.562,265.244 356.800,266.000 356.800 C 266.972 356.800,267.200 355.517,267.200 350.057 C 267.200 345.130,266.877 342.991,266.000 342.114 C 265.340 341.454,264.800 340.169,264.800 339.257 C 264.800 338.346,264.440 337.600,264.000 337.600 C 263.560 337.600,263.200 337.060,263.200 336.400 C 263.200 335.740,262.660 335.200,262.000 335.200 C 261.340 335.200,260.800 334.790,260.800 334.288 C 260.800 333.086,258.344 331.258,256.686 331.225 C 255.963 331.211,255.164 330.660,254.911 330.000 C 254.644 329.306,253.448 328.800,252.072 328.800 C 250.764 328.800,249.472 328.440,249.200 328.000 C 248.928 327.560,246.588 327.200,244.000 327.200 C 241.412 327.200,239.072 327.560,238.800 328.000 M277.600 327.988 C 276.940 328.371,275.810 328.864,275.088 329.083 C 271.692 330.116,268.593 372.800,271.913 372.800 C 272.306 372.800,272.852 373.700,273.129 374.800 C 273.611 376.724,273.873 376.800,280.000 376.800 C 286.127 376.800,286.389 376.724,286.871 374.800 C 287.148 373.700,287.694 372.800,288.087 372.800 C 288.479 372.800,288.800 366.500,288.800 358.800 C 288.800 346.889,288.979 344.800,290.000 344.800 C 290.660 344.800,291.200 344.440,291.200 344.000 C 291.200 342.337,295.718 343.208,297.456 345.206 C 299.096 347.093,299.200 347.995,299.200 360.397 C 299.200 376.494,299.345 376.800,306.969 376.800 C 312.299 376.800,315.200 375.344,315.200 372.669 C 315.200 371.913,315.560 371.072,316.000 370.800 C 316.481 370.503,316.800 365.074,316.800 357.200 C 316.800 349.326,316.481 343.897,316.000 343.600 C 315.560 343.328,315.200 341.496,315.200 339.528 C 315.200 337.085,314.819 335.804,314.000 335.489 C 313.340 335.236,312.800 334.682,312.800 334.257 C 312.800 333.259,310.741 331.200,309.743 331.200 C 309.318 331.200,308.764 330.660,308.511 330.000 C 308.222 329.247,306.998 328.800,305.225 328.800 C 303.671 328.800,302.400 328.440,302.400 328.000 C 302.400 327.560,300.420 327.200,298.000 327.200 C 295.580 327.200,293.600 327.560,293.600 328.000 C 293.600 328.440,292.546 328.800,291.257 328.800 C 289.969 328.800,288.349 329.366,287.657 330.057 C 286.966 330.749,286.400 330.945,286.400 330.495 C 286.400 330.044,285.230 329.337,283.800 328.924 C 282.370 328.511,280.660 327.975,280.000 327.733 C 279.340 327.490,278.260 327.605,277.600 327.988 M360.400 328.000 C 360.128 328.440,359.016 328.800,357.928 328.800 C 356.840 328.800,355.743 329.340,355.489 330.000 C 355.236 330.660,354.695 331.200,354.287 331.200 C 352.927 331.200,348.800 336.034,348.800 337.628 C 348.800 338.492,348.440 339.200,348.000 339.200 C 347.556 339.200,347.200 341.333,347.200 344.000 C 347.200 346.667,347.556 348.800,348.000 348.800 C 348.440 348.800,348.800 349.700,348.800 350.800 C 348.800 352.044,349.253 352.800,350.000 352.800 C 350.660 352.800,351.200 353.340,351.200 354.000 C 351.200 354.660,351.740 355.200,352.400 355.200 C 353.060 355.200,353.600 355.560,353.600 356.000 C 353.600 356.440,354.346 356.800,355.257 356.800 C 356.169 356.800,357.454 357.340,358.114 358.000 C 358.774 358.660,360.189 359.200,361.257 359.200 C 362.326 359.200,363.200 359.560,363.200 360.000 C 363.200 360.440,364.144 360.800,365.298 360.800 C 367.072 360.800,367.242 360.985,366.400 362.000 C 365.852 362.660,364.947 363.200,364.388 363.200 C 363.829 363.200,363.164 362.660,362.911 362.000 C 362.657 361.340,361.740 360.800,360.872 360.800 C 360.004 360.800,359.072 360.440,358.800 360.000 C 357.029 357.135,347.200 359.758,347.200 363.096 C 347.200 363.981,346.840 364.928,346.400 365.200 C 345.960 365.472,345.600 366.393,345.600 367.247 C 345.600 368.101,345.960 368.800,346.400 368.800 C 346.840 368.800,347.200 369.516,347.200 370.391 C 347.200 372.446,349.565 375.200,351.331 375.200 C 352.087 375.200,352.928 375.560,353.200 376.000 C 353.472 376.440,355.139 376.800,356.904 376.800 C 358.691 376.800,360.646 377.332,361.314 378.000 C 361.974 378.660,363.704 379.200,365.159 379.200 C 366.614 379.200,368.252 378.660,368.800 378.000 C 369.348 377.340,370.791 376.800,372.007 376.800 C 375.412 376.800,380.800 373.464,380.800 371.355 C 380.800 370.938,381.340 370.148,382.000 369.600 C 382.890 368.861,383.200 366.890,383.200 361.959 C 383.200 357.119,382.874 354.988,382.000 354.114 C 381.340 353.454,380.800 352.529,380.800 352.057 C 380.800 351.586,380.260 351.200,379.600 351.200 C 378.940 351.200,378.398 350.930,378.395 350.600 C 378.388 349.778,373.749 347.200,372.278 347.200 C 371.622 347.200,370.546 346.660,369.886 346.000 C 368.209 344.323,371.715 344.294,373.567 345.970 C 374.886 347.164,378.400 346.827,378.400 345.507 C 378.400 345.118,378.792 344.800,379.272 344.800 C 381.004 344.800,383.147 341.175,383.173 338.200 C 383.188 336.550,382.831 335.200,382.380 335.200 C 381.929 335.200,381.218 334.300,380.800 333.200 C 380.334 331.976,379.411 331.200,378.420 331.200 C 377.513 331.200,376.800 330.672,376.800 330.000 C 376.800 329.205,376.005 328.800,374.447 328.800 C 373.153 328.800,371.872 328.440,371.600 328.000 C 371.328 327.560,368.808 327.200,366.000 327.200 C 363.192 327.200,360.672 327.560,360.400 328.000 M120.800 344.000 C 120.800 344.440,121.250 344.814,121.800 344.830 C 124.977 344.927,128.393 354.014,126.000 356.000 C 125.340 356.548,124.800 357.338,124.800 357.755 C 124.800 358.997,122.736 360.685,120.545 361.235 C 115.698 362.452,109.430 350.264,114.000 348.511 C 114.660 348.257,115.200 347.319,115.200 346.425 C 115.200 345.350,115.725 344.800,116.753 344.800 C 117.607 344.800,118.528 344.440,118.800 344.000 C 119.072 343.560,119.633 343.200,120.047 343.200 C 120.461 343.200,120.800 343.560,120.800 344.000 M192.800 344.000 C 192.800 344.440,193.186 344.800,193.657 344.800 C 194.765 344.800,196.800 346.835,196.800 347.943 C 196.800 348.414,197.340 348.800,198.000 348.800 C 200.646 348.800,199.514 355.739,196.352 358.901 C 192.950 362.303,187.200 361.583,187.200 357.755 C 187.200 357.338,186.660 356.548,186.000 356.000 C 185.340 355.452,184.800 354.012,184.800 352.800 C 184.800 351.588,185.340 350.148,186.000 349.600 C 186.660 349.052,187.200 348.138,187.200 347.569 C 187.200 346.999,188.190 345.795,189.400 344.892 C 191.856 343.060,192.800 342.812,192.800 344.000 M248.181 345.000 L 249.751 346.800 246.875 347.048 C 240.270 347.619,238.153 347.012,239.762 345.011 C 241.723 342.570,246.058 342.565,248.181 345.000 M367.600 344.000 C 367.872 344.440,367.353 344.800,366.447 344.800 C 365.541 344.800,364.800 344.440,364.800 344.000 C 364.800 343.560,365.319 343.200,365.953 343.200 C 366.587 343.200,367.328 343.560,367.600 344.000 M253.600 360.000 C 253.600 360.440,252.924 360.800,252.098 360.800 C 251.272 360.800,250.148 361.340,249.600 362.000 C 248.073 363.840,244.354 363.452,241.924 361.200 L 239.766 359.200 246.683 359.200 C 250.761 359.200,253.600 359.528,253.600 360.000 M187.200 378.000 C 188.563 379.643,185.827 379.623,183.647 377.975 C 182.152 376.844,182.171 376.800,184.149 376.800 C 185.279 376.800,186.652 377.340,187.200 378.000 M195.714 378.000 C 195.054 378.660,194.114 379.200,193.626 379.200 C 192.339 379.200,194.534 376.869,195.857 376.830 C 196.666 376.807,196.633 377.082,195.714 378.000 " stroke="none" fill="#0078c1" fill-rule="evenodd"></path><path id="path4" d="" stroke="none" fill="#0000ff" fill-rule="evenodd"></path></g></svg>